<?xml version="1.0" encoding="UTF-8"?>
<svg id="Layer_2" data-name="Layer 2" xmlns="http://www.w3.org/2000/svg" viewBox="0 0 864.58 259.62">
  <defs>
    <style>
      .cls-1 {
        fill: #763992;
      }

      .cls-2 {
        fill: #ee477e;
      }
    </style>
  </defs>
  <g id="Layer_1-2" data-name="Layer 1">
    <g>
      <path class="cls-2" d="M101.99,167.12c.79-8.15,2.46-15.32,7.98-20.83-4.6,16.51-6.15,38.33-4.47,55.18.39,3.9,5.13,5.76,7.43,8.05,3.58,1.08,3.87,3.84,4.02,6.88.77,15.02,5.28,28.76,14.45,40.82C81.66,230.22,3.97,164.89.13,105.07c-1.42-22.08,9.18-41.75,26.81-54.63,16.97-12.4,38.7-17.08,58.64-9.43,14,5.37,24.69,15.49,34.25,26.63,3.47,4.04,6.33,8.02,10.23,10.88-2.81,6.73-14.39-3.75-22.52,11.97s-3.21,30.48-19.44,38.32c5.09,2.59,8.83.45,13.49-2.03-2.54,9-13.79,16.44-10.12,28.27,1.6,5.15,5.35,8.97,10.53,12.07Z"/>
      <g>
        <path class="cls-1" d="M189.34,211.02c3.5-30.2-27-32.24-22.45-43.45,2.94-7.24-.6-13.95-7.8-16.19-6.51-2.03-12.32-5.08-17.57-9.34-3.94-3.19-4.67-9.85-.7-12.33,2.28.88,4.73,3.17,7.11,2.63,5.31-1.21,3.86-7.03,11.77-8.67,1.13-2.93-.73-7.21.8-10.59,6.97-4.33,9.99-13.55,6.19-21.32-6.07-12.39-18.93-17.25-33.5-15.5l33.91-20.49c9.92,4.78,21.08,3.07,26.41-6.99,9.87.32,20.7-2.59,30.41.8,17.91,6.25,28.53,23.43,33.07,41.19,4.12,16.14,1.71,32.47-3.38,48.08-8.64,26.48-25.34,50.67-44.45,70.94-17.99,19.08-37.51,35.62-60.24,48.52-4.56,2.59-8.83,1.1-12.16-2.68-9.31-10.55-13.39-24.07-14.13-38.68,8.09,5.38,16.48,8.79,24.52,13.54,6.22,3.68,11.91,6.79,19.36,6.28,3.88-.27,4.97-2.7,7.43-4.16,8.27-4.88,14.19-11.08,15.41-21.61Z"/>
        <circle class="cls-2" cx="177.63" cy="43.05" r="10.48"/>
        <circle class="cls-2" cx="207.06" cy="25.56" r="10.32"/>
        <circle class="cls-2" cx="233.91" cy="8.33" r="8.33"/>
        <path class="cls-2" d="M150.38,217.28c5,4.97,11.25-.98,16.23,3.66-5.54.22-10.38-.1-15.44-.43-9.89-7.84-17.62-16.7-26.24-25.99,1.42-7.08,2.83-13.88,5.77-21.02.1,7.28-2.46,14.48.92,21.2,4.44,8.84,11.84,15.72,18.76,22.58Z"/>
      </g>
    </g>
    <path class="cls-2" d="M319.69,137.65c4.77,1.78,10.41,5,12.21,10.72,3.99,12.71-4.53,24.07-17.12,27.2-12.39,3.08-25,2.61-37.73.73l10.5-75.33c12.91-.93,41.33-3.88,45.98,12.57,2.99,10.56-1.86,18.36-13.84,24.11ZM319.74,116.02c-2.42-7.63-13.9-7.58-19.99-6.73l-3.22,24.1c4,.43,8.02.78,12.24-.12,7.81-1.67,13.61-8.94,10.97-17.25ZM318.07,158.9c1.41-5.08.97-10.21-3.27-13.35-5.59-4.14-13.04-3.63-19.64-2.8l-3.36,25.09c8.96,1.74,23.34,1.59,26.27-8.94Z"/>
    <path class="cls-1" d="M827.51,151.78c-1.52-7.4-2.46-14.07-5.87-20.85l-5.28,9.43c-3.15-2.28-5.92-4.3-9.4-3.93-9.64,1.01-12.36,16.56-11.2,25.02.62,4.51,4.22,7.31,8.73,6.94,3.4-.28,5.82-1.98,9.23-3.54,1.04,1.57,2.1,5.08,1.4,7.14-5.07,4.41-12.43,6.54-19.27,5.52-5.87-.87-10.56-4.86-12.05-10.66-3.4-13.23.95-28.11,12.26-35.72,8.11-5.47,18.11-6.01,25.8-.88,4.61-1.81,8.66-3.36,13.58-2.89l6.82,38.77c7.83-11.74,9.32-24.77,10.39-38.03,3.88-.81,7.74-.45,11.9.33.87,20.69-25.83,73.86-49.79,71.77-1.17-3.21-1.73-5.93-2.29-9.19,8.43-1.67,15.56-5.46,20.48-12.65l-5.45-26.56Z"/>
    <path class="cls-1" d="M474.53,148.59l-3.92,27.78c-4.53.63-8.99.53-14,.11l10.5-75.48c12.74-.56,34.61-2.51,41.63,9.77,6.61,11.58,1.91,27.21-9.47,33.8-7.48,4.33-15.33,5.02-24.75,4.02ZM492.06,136.02c5.31-5.16,7.2-14.04,3.89-20.48-3.05-5.94-10.68-7.11-16.33-5.51l-3.88,29.7c5.59.83,11.68.79,16.32-3.71Z"/>
    <path class="cls-1" d="M588.47,186.53c4.14,3.57,7.76,6.4,13.02,6.32,11.06-.17,12.9-14.62,12.86-23.97-3.69,4.89-8.65,7.98-14.9,7.82-5.37-.13-10.36-3.21-11.96-8.49-4.28-14.12.86-29.6,12.86-37.86,7.04-4.85,15.23-4.16,22.23-.36,3.1-.65,6.9-3.58,10.75-1.46l-7.54,48.13c-1.1,7-3.51,14.11-9.15,18.72-9.62,7.84-24.61,7.74-33.94.23,1.16-3.72,2.94-5.6,5.76-9.08ZM616.23,155.88c1.31-5.67,3.4-11.82,2.57-17.85-.4-2.9-6.83-2.99-9.2-2.35-10.2,2.76-14.82,28.53-6.32,31.27,5.82,1.88,12.11-7.44,12.95-11.08Z"/>
    <path class="cls-1" d="M716.19,176.69c-3.3-.92-1.89-5.77-3.14-8.77-3.44,4.3-7.15,8.4-12.93,9.54-6.31,1.24-12.72-1.93-14.4-8.63-3-11.99.3-25.58,8.77-34.45,7-7.34,16.83-9.92,25.48-5.15,3.72-1.89,7.49-1.97,10.81-.2-1.95,11.84-4.37,22.76-5.46,34.36-.36,3.84,1.02,6.47,4.12,10.05-3.68,2.24-8.53,4.55-13.26,3.23ZM713.75,156.39c1.8-6.31,2.49-12.62,3.23-19.23-4.98-3.21-10.82-2.15-14.05,2.55-6.3,9.15-7.98,25.58-1.68,27.44,5.58,1.65,11.36-6.75,12.5-10.76Z"/>
    <path class="cls-1" d="M679.97,174.27c-2.75,1.53-11.32,4.75-14.26,2.01-6.01-5.59,4.51-33.98.59-36.74-5.19-3.65-14.64,8.95-15.36,14l-3.27,22.79c-4.06.53-8.18.55-12.2.07l4.53-32.05c.68-4.81,1.01-9.25.13-14.31,4.58-1.72,9.23-2.77,13.69-2.8l-.47,11.75c6.08-7.64,16.56-16.25,24.14-10.51,7.7,5.83-3.09,29.89-.71,40.28l2.83,1.64c.86.5,1.53,3.22.35,3.88Z"/>
    <path class="cls-1" d="M766.28,177.25c-3.84-.35-4.91-5.13-4.48-8.14l3.78-26.1c.21-1.42-.29-2.97-1.18-3.52-5.28-3.26-14.2,8.92-14.81,12.8l-3.81,24.11c-4.13.46-8.29.58-12.41-.02l5.25-36.21c.49-3.37-.08-6.44-.11-9.96,4.03-1.79,8.36-2.67,13.31-3.16l.17,11.47c5.72-7.34,17.03-15.92,24.16-9.64,1.98,1.75,2.85,5.08,2.35,8.27l-4.06,25.87c-1.38,8.79,6.56,7.86,3.45,10.88-2.43,2.36-7.56,3.73-11.63,3.35Z"/>
    <path class="cls-1" d="M577.35,164.79c1.54,2.04,1.83,4.41,1.9,7.14-6.23,4.42-13.75,6.72-21.43,5.56-6.75-1.02-11.68-5.8-13.22-12.42-2.05-8.82-.32-17.86,4.48-25.59,5.14-8.3,14.33-13.38,24.13-12.93,4.64.21,8.99,2.55,10.51,6.92,2.42,6.94-.69,14.14-6.56,18.18-6.17,4.25-12.93,5.85-20.51,6.71-.32,3.86,1.24,8.16,5.18,9.56,5.18,1.84,10.3.44,15.53-3.14ZM572.74,140.74c.68-2.82-.55-5.05-2.03-5.57-7.53-2.64-13.35,9.37-13.52,15.93,7.11.2,13.81-3.18,15.54-10.36Z"/>
    <path class="cls-2" d="M371.21,164.62c1.7,2.25,2.11,4.51,2,7.23-6.27,4.29-13.7,6.72-21.38,5.58-6.65-.99-11.9-5.63-13.37-12.24-2.38-10.69.36-22.19,7.82-30.21,10.7-11.51,27.78-11.1,31.16-2.02,2.6,6.96-.46,14.38-6.36,18.7-5.7,4.19-12.69,5.12-19.96,6.74-1.59,1.06,0,5.15.96,6.63,3.41,5.31,12.44,4.54,19.13-.43ZM366.85,139.91c.64-2.48-.7-4.37-1.86-4.88-7.03-3.16-13.42,7.85-13.95,15.62,7.1.82,13.89-3.35,15.81-10.73Z"/>
    <path class="cls-2" d="M407.83,173.02c-9,6.53-21.27,5.97-29.95.06.93-3.87,2.93-6.69,5.48-9.26,4.16,3.87,8.99,6.25,14.13,4.54,2.01-.67,3.49-2.27,3.77-4.01s-.5-3.77-2.32-4.9l-11.72-7.3c-6.77-4.22-5.64-14.44.45-20.16,7.38-6.93,19.94-8.17,28.73-2.87,1.68,2.36-1.27,9.12-3.96,9.53-3.91-1.46-7.86-5.23-12.64-3.38-2.22.86-4.27,2.08-4.36,4.41-.25,5.85,9.99,6.8,15.21,12.35,5.56,5.91,4.33,15.82-2.81,20.99Z"/>
    <path class="cls-2" d="M445.45,173.5c-3.82,2.83-8.46,4.05-12.69,4.08-6.14.03-10.07-4.61-9.22-10.58l4.43-31.28c-2.4-.99-4.54-.24-7.01-.81.77-2.42,1.22-5.4,3.09-7.31,1.35-1.38,4.21-.29,5.87-1.31,4.46-13.91-1.08-10.92,14.61-18.34.2,6.5-1.72,11.78-2.34,18.46l11.85.69c-.99,2.2-1.19,6-3.23,7.39-2.87,1.95-6.5-.09-10.35.86-1.04,9.99-4.74,20.28-3.57,30.55.46,4.02,8.49,1.69,10.46-.98,2.07,2.58.76,6.63-1.88,8.59Z"/>
    <path class="cls-1" d="M522.56,176.34c-3.84.64-7.76.57-12.4.1l4.44-31.4c.71-5.02.84-9.66.27-14.9,4.21-1.73,8.69-2.75,13.13-3.04l.32,10.58c5.45-6.76,7.96-12.89,18.14-10.42-.34,4.83-1.69,9.05-3.11,13.52-9.27-5.22-16.78,7.62-17.4,11.89l-3.4,23.68Z"/>
  </g>
</svg>